<?xml version="1.0" encoding="UTF-8" standalone="no"?>
<!DOCTYPE svg PUBLIC "-//W3C//DTD SVG 1.1//EN"
 "http://www.w3.org/Graphics/SVG/1.1/DTD/svg11.dtd">
<!-- Generated by graphviz version 2.39.20141127.0545 (20141127.0545)
 -->
<!-- Title: %1041 Pages: 1 -->
<svg width="3780pt" height="457pt"
 viewBox="0.00 0.00 3780.00 457.00" xmlns="http://www.w3.org/2000/svg" xmlns:xlink="http://www.w3.org/1999/xlink">
<g id="graph0" class="graph" transform="scale(1 1) rotate(0) translate(4 453)">
<title>%1041</title>
<polygon fill="white" stroke="transparent" points="-4,4 -4,-453 3776,-453 3776,4 -4,4"/>
<g id="clust6" class="cluster"><title>cluster_donniversetti</title>
<polygon fill="none" stroke="black" points="1122,-8 1122,-206 1834,-206 1834,-8 1122,-8"/>
</g>
<g id="clust7" class="cluster"><title>cluster_villijons</title>
<polygon fill="none" stroke="black" points="860,-81 860,-295 1114,-295 1114,-81 860,-81"/>
</g>
<g id="clust9" class="cluster"><title>cluster_medowjons</title>
<polygon fill="none" stroke="black" points="654,-154 654,-384 852,-384 852,-154 654,-154"/>
</g>
<g id="clust10" class="cluster"><title>cluster_players</title>
<polygon fill="none" stroke="black" points="2444,-8 2444,-384 2636,-384 2636,-8 2444,-8"/>
</g>
<g id="clust8" class="cluster"><title>cluster_lestat</title>
<polygon fill="none" stroke="black" points="8,-154 8,-384 646,-384 646,-154 8,-154"/>
</g>
<g id="clust4" class="cluster"><title>cluster_annafonbraun</title>
<polygon fill="none" stroke="black" points="3048,-154 3048,-384 3764,-384 3764,-154 3048,-154"/>
</g>
<g id="clust3" class="cluster"><title>cluster_arman</title>
<polygon fill="none" stroke="black" points="1842,-154 1842,-384 2309,-384 2309,-154 1842,-154"/>
</g>
<g id="clust5" class="cluster"><title>cluster_orlando</title>
<polygon fill="none" stroke="black" points="2710,-81 2710,-295 3040,-295 3040,-81 2710,-81"/>
</g>
<!-- Журналист -->
<g id="node1" class="node"><title>Журналист</title>
<ellipse fill="none" stroke="black" cx="2505" cy="-358" rx="52.5317" ry="18"/>
<text text-anchor="middle" x="2505" y="-353.8" font-family="Times,serif" font-size="14.00">Журналист</text>
</g>
<!-- Зараженная -->
<g id="node2" class="node"><title>Зараженная</title>
<ellipse fill="none" stroke="black" cx="2573" cy="-180" rx="55.2896" ry="18"/>
<text text-anchor="middle" x="2573" y="-175.8" font-family="Times,serif" font-size="14.00">Зараженная</text>
</g>
<!-- Журналист&#45;&gt;Зараженная -->
<g id="edge25" class="edge"><title>Журналист&#45;&gt;Зараженная</title>
<path fill="none" stroke="black" d="M2514.58,-330.144C2524.62,-301.36 2541.12,-255.23 2557,-216 2558.17,-213.113 2559.43,-210.115 2560.71,-207.135"/>
<polygon fill="black" stroke="black" points="2511.16,-329.325 2511.18,-339.919 2517.77,-331.621 2511.16,-329.325"/>
<polygon fill="black" stroke="black" points="2563.97,-208.407 2564.79,-197.844 2557.56,-205.594 2563.97,-208.407"/>
<text text-anchor="middle" x="2548.11" y="-264.8" font-family="Times,serif" font-size="14.00">?</text>
</g>
<!-- Донни Версетти -->
<g id="node10" class="node"><title>Донни Версетти</title>
<ellipse fill="none" stroke="black" cx="1462" cy="-180" rx="70.8459" ry="18"/>
<text text-anchor="middle" x="1462" y="-175.8" font-family="Times,serif" font-size="14.00">Донни Версетти</text>
</g>
<!-- Журналист&#45;&gt;Донни Версетти -->
<g id="edge28" class="edge"><title>Журналист&#45;&gt;Донни Версетти</title>
<path fill="none" stroke="black" d="M2464.84,-346.219C2426.19,-335.198 2365.98,-318.851 2313,-308 2028.45,-249.719 1685.31,-206.139 1536.66,-188.542"/>
<polygon fill="black" stroke="black" points="1537.07,-185.066 1526.73,-187.37 1536.25,-192.017 1537.07,-185.066"/>
<text text-anchor="middle" x="2268.9" y="-264.8" font-family="Times,serif" font-size="14.00">Работет на</text>
</g>
<!-- Работает певицей -->
<g id="node3" class="node"><title>Работает певицей</title>
<ellipse fill="none" stroke="black" cx="2360" cy="-107" rx="75.6053" ry="18"/>
<text text-anchor="middle" x="2360" y="-102.8" font-family="Times,serif" font-size="14.00">Работает певицей</text>
</g>
<!-- Зараженная&#45;&gt;Работает певицей -->
<g id="edge1" class="edge"><title>Зараженная&#45;&gt;Работает певицей</title>
<path fill="none" stroke="black" d="M2537.3,-166.199C2526.62,-162.167 2514.87,-157.82 2504,-154 2474.94,-143.789 2442.33,-133.084 2415.5,-124.474"/>
<polygon fill="black" stroke="black" points="2416.49,-121.115 2405.9,-121.402 2414.36,-127.782 2416.49,-121.115"/>
</g>
<!-- Смертельно больной -->
<g id="node4" class="node"><title>Смертельно больной</title>
<ellipse fill="none" stroke="black" cx="2540" cy="-34" rx="87.9588" ry="18"/>
<text text-anchor="middle" x="2540" y="-29.8" font-family="Times,serif" font-size="14.00">Смертельно больной</text>
</g>
<!-- Зараженная&#45;&gt;Смертельно больной -->
<g id="edge26" class="edge"><title>Зараженная&#45;&gt;Смертельно больной</title>
<path fill="none" stroke="black" d="M2566.62,-151.782C2560.8,-126.021 2552.24,-88.1349 2546.4,-62.3367"/>
<polygon fill="black" stroke="black" points="2563.27,-152.822 2568.89,-161.804 2570.1,-151.279 2563.27,-152.822"/>
<polygon fill="black" stroke="black" points="2549.78,-61.4074 2544.16,-52.4251 2542.96,-62.9507 2549.78,-61.4074"/>
<text text-anchor="middle" x="2564.11" y="-102.8" font-family="Times,serif" font-size="14.00">?</text>
</g>
<!-- Смертельно больной&#45;&gt;Журналист -->
<g id="edge27" class="edge"><title>Смертельно больной&#45;&gt;Журналист</title>
<path fill="none" stroke="black" d="M2514.42,-59.219C2503.84,-72.3121 2494,-89.2605 2494,-107 2494,-269 2494,-269 2494,-269 2494,-289.5 2496.91,-312.457 2499.74,-329.92"/>
<polygon fill="black" stroke="black" points="2517.13,-61.4439 2521.02,-51.5922 2511.83,-56.8628 2517.13,-61.4439"/>
<polygon fill="black" stroke="black" points="2496.33,-330.743 2501.46,-340.012 2503.23,-329.566 2496.33,-330.743"/>
<text text-anchor="middle" x="2497.11" y="-175.8" font-family="Times,serif" font-size="14.00">?</text>
</g>
<!-- Вентру -->
<g id="node5" class="node"><title>Вентру</title>
<ellipse fill="none" stroke="black" cx="2906" cy="-431" rx="37.0282" ry="18"/>
<text text-anchor="middle" x="2906" y="-426.8" font-family="Times,serif" font-size="14.00">Вентру</text>
</g>
<!-- Арман -->
<g id="node7" class="node"><title>Арман</title>
<ellipse fill="none" stroke="black" cx="2118" cy="-358" rx="34.7591" ry="18"/>
<text text-anchor="middle" x="2118" y="-353.8" font-family="Times,serif" font-size="14.00">Арман</text>
</g>
<!-- Вентру&#45;&gt;Арман -->
<g id="edge2" class="edge"><title>Вентру&#45;&gt;Арман</title>
<path fill="none" stroke="black" d="M2869.31,-427.601C2739.63,-415.588 2303.1,-375.147 2162.23,-362.097"/>
<polygon fill="black" stroke="black" points="2162.5,-358.607 2152.22,-361.17 2161.85,-365.577 2162.5,-358.607"/>
</g>
<!-- Анна Фон Браун -->
<g id="node8" class="node"><title>Анна Фон Браун</title>
<ellipse fill="none" stroke="black" cx="3213" cy="-358" rx="72.4634" ry="18"/>
<text text-anchor="middle" x="3213" y="-353.8" font-family="Times,serif" font-size="14.00">Анна Фон Браун</text>
</g>
<!-- Вентру&#45;&gt;Анна Фон Браун -->
<g id="edge4" class="edge"><title>Вентру&#45;&gt;Анна Фон Браун</title>
<path fill="none" stroke="black" d="M2939.44,-423.049C2990.04,-411.017 3086.9,-387.984 3150.74,-372.806"/>
<polygon fill="black" stroke="black" points="3151.76,-376.158 3160.68,-370.44 3150.15,-369.348 3151.76,-376.158"/>
</g>
<!-- Орландо -->
<g id="node9" class="node"><title>Орландо</title>
<ellipse fill="none" stroke="black" cx="2906" cy="-269" rx="42.0611" ry="18"/>
<text text-anchor="middle" x="2906" y="-264.8" font-family="Times,serif" font-size="14.00">Орландо</text>
</g>
<!-- Вентру&#45;&gt;Орландо -->
<g id="edge3" class="edge"><title>Вентру&#45;&gt;Орландо</title>
<path fill="none" stroke="black" d="M2906,-412.731C2906,-384.778 2906,-331.142 2906,-297.882"/>
<polygon fill="black" stroke="black" points="2909.5,-297.45 2906,-287.45 2902.5,-297.45 2909.5,-297.45"/>
</g>
<!-- Тремер -->
<g id="node6" class="node"><title>Тремер</title>
<ellipse fill="none" stroke="black" cx="724" cy="-431" rx="37.64" ry="18"/>
<text text-anchor="middle" x="724" y="-426.8" font-family="Times,serif" font-size="14.00">Тремер</text>
</g>
<!-- Вилли &#39;Угрюмый&#39; Джонс -->
<g id="node11" class="node"><title>Вилли &#39;Угрюмый&#39; Джонс</title>
<ellipse fill="none" stroke="black" cx="1002" cy="-269" rx="103.861" ry="18"/>
<text text-anchor="middle" x="1002" y="-264.8" font-family="Times,serif" font-size="14.00">Вилли &#39;Угрюмый&#39; Джонс</text>
</g>
<!-- Тремер&#45;&gt;Вилли &#39;Угрюмый&#39; Джонс -->
<g id="edge5" class="edge"><title>Тремер&#45;&gt;Вилли &#39;Угрюмый&#39; Джонс</title>
<path fill="none" stroke="black" d="M757.275,-422.415C784.761,-414.571 824.272,-401.524 856,-384 901.758,-358.727 948.072,-319.385 975.913,-293.903"/>
<polygon fill="black" stroke="black" points="978.638,-296.15 983.6,-286.789 973.883,-291.013 978.638,-296.15"/>
</g>
<!-- Лестат -->
<g id="node12" class="node"><title>Лестат</title>
<ellipse fill="none" stroke="black" cx="597" cy="-358" rx="35.9531" ry="18"/>
<text text-anchor="middle" x="597" y="-353.8" font-family="Times,serif" font-size="14.00">Лестат</text>
</g>
<!-- Тремер&#45;&gt;Лестат -->
<g id="edge6" class="edge"><title>Тремер&#45;&gt;Лестат</title>
<path fill="none" stroke="black" d="M699.813,-417.097C679.914,-405.659 651.523,-389.34 629.615,-376.747"/>
<polygon fill="black" stroke="black" points="631.081,-373.553 620.667,-371.604 627.592,-379.622 631.081,-373.553"/>
</g>
<!-- Мэдоу Джонс -->
<g id="node13" class="node"><title>Мэдоу Джонс</title>
<ellipse fill="none" stroke="black" cx="724" cy="-358" rx="62.4274" ry="18"/>
<text text-anchor="middle" x="724" y="-353.8" font-family="Times,serif" font-size="14.00">Мэдоу Джонс</text>
</g>
<!-- Тремер&#45;&gt;Мэдоу Джонс -->
<g id="edge7" class="edge"><title>Тремер&#45;&gt;Мэдоу Джонс</title>
<path fill="none" stroke="black" d="M724,-412.955C724,-404.883 724,-395.176 724,-386.182"/>
<polygon fill="black" stroke="black" points="727.5,-386.09 724,-376.09 720.5,-386.09 727.5,-386.09"/>
</g>
<!-- Арман&#45;&gt;Орландо -->
<g id="edge30" class="edge"><title>Арман&#45;&gt;Орландо</title>
<path fill="none" stroke="black" d="M2151.86,-354.176C2275.85,-340.172 2705.63,-291.631 2854.64,-274.8"/>
<polygon fill="black" stroke="black" points="2855.34,-278.244 2864.88,-273.644 2854.55,-271.289 2855.34,-278.244"/>
<text text-anchor="middle" x="2591.38" y="-310.8" font-family="Times,serif" font-size="14.00">Наставник</text>
</g>
<!-- Арман&#45;&gt;Вилли &#39;Угрюмый&#39; Джонс -->
<g id="edge29" class="edge"><title>Арман&#45;&gt;Вилли &#39;Угрюмый&#39; Джонс</title>
<path fill="none" stroke="black" d="M2083.68,-355.263C1935.69,-343.461 1348.59,-296.64 1106.85,-277.362"/>
<polygon fill="black" stroke="black" points="1106.89,-273.854 1096.65,-276.548 1106.34,-280.832 1106.89,-273.854"/>
<text text-anchor="middle" x="1713.08" y="-310.8" font-family="Times,serif" font-size="14.00">Готовит убийство</text>
</g>
<!-- Князь Нью&#45;Йорка -->
<g id="node15" class="node"><title>Князь Нью&#45;Йорка</title>
<ellipse fill="none" stroke="black" cx="2222" cy="-180" rx="78.511" ry="18"/>
<text text-anchor="middle" x="2222" y="-175.8" font-family="Times,serif" font-size="14.00">Князь Нью&#45;Йорка</text>
</g>
<!-- Арман&#45;&gt;Князь Нью&#45;Йорка -->
<g id="edge8" class="edge"><title>Арман&#45;&gt;Князь Нью&#45;Йорка</title>
<path fill="none" stroke="black" d="M2128.16,-340.609C2146.4,-309.399 2184.78,-243.701 2206.38,-206.732"/>
<polygon fill="black" stroke="black" points="2209.47,-208.391 2211.49,-197.991 2203.42,-204.86 2209.47,-208.391"/>
</g>
<!-- Бездушный -->
<g id="node16" class="node"><title>Бездушный</title>
<ellipse fill="none" stroke="black" cx="1903" cy="-180" rx="53.3952" ry="18"/>
<text text-anchor="middle" x="1903" y="-175.8" font-family="Times,serif" font-size="14.00">Бездушный</text>
</g>
<!-- Арман&#45;&gt;Бездушный -->
<g id="edge9" class="edge"><title>Арман&#45;&gt;Бездушный</title>
<path fill="none" stroke="black" d="M2099.3,-342.515C2061.5,-311.222 1975.83,-240.296 1931.21,-203.354"/>
<polygon fill="black" stroke="black" points="1933.31,-200.55 1923.38,-196.869 1928.85,-205.942 1933.31,-200.55"/>
</g>
<!-- Любит искусство -->
<g id="node17" class="node"><title>Любит искусство</title>
<ellipse fill="none" stroke="black" cx="2050" cy="-180" rx="75.5952" ry="18"/>
<text text-anchor="middle" x="2050" y="-175.8" font-family="Times,serif" font-size="14.00">Любит искусство</text>
</g>
<!-- Арман&#45;&gt;Любит искусство -->
<g id="edge10" class="edge"><title>Арман&#45;&gt;Любит искусство</title>
<path fill="none" stroke="black" d="M2111.23,-340.282C2099.38,-309.256 2074.78,-244.876 2060.64,-207.845"/>
<polygon fill="black" stroke="black" points="2063.78,-206.269 2056.94,-198.176 2057.24,-208.767 2063.78,-206.269"/>
</g>
<!-- Анна Фон Браун&#45;&gt;Орландо -->
<g id="edge37" class="edge"><title>Анна Фон Браун&#45;&gt;Орландо</title>
<path fill="none" stroke="black" d="M3165.7,-344.289C3107.16,-327.315 3008.17,-298.62 2950.8,-281.988"/>
<polygon fill="black" stroke="black" points="2951.51,-278.551 2940.94,-279.128 2949.57,-285.274 2951.51,-278.551"/>
<text text-anchor="middle" x="3116.07" y="-310.8" font-family="Times,serif" font-size="14.00">Влюблена</text>
</g>
<!-- Владелец фабрики крови -->
<g id="node18" class="node"><title>Владелец фабрики крови</title>
<ellipse fill="none" stroke="black" cx="3652" cy="-180" rx="103.887" ry="18"/>
<text text-anchor="middle" x="3652" y="-175.8" font-family="Times,serif" font-size="14.00">Владелец фабрики крови</text>
</g>
<!-- Анна Фон Браун&#45;&gt;Владелец фабрики крови -->
<g id="edge11" class="edge"><title>Анна Фон Браун&#45;&gt;Владелец фабрики крови</title>
<path fill="none" stroke="black" d="M3251.19,-342.515C3330.49,-310.361 3512.99,-236.364 3601.73,-200.385"/>
<polygon fill="black" stroke="black" points="3603.09,-203.608 3611.04,-196.607 3600.46,-197.121 3603.09,-203.608"/>
</g>
<!-- утонченна, одета в человеческую кожу -->
<g id="node19" class="node"><title>утонченна, одета в человеческую кожу</title>
<ellipse fill="none" stroke="black" cx="3213" cy="-180" rx="156.558" ry="18"/>
<text text-anchor="middle" x="3213" y="-175.8" font-family="Times,serif" font-size="14.00">утонченна, одета в человеческую кожу</text>
</g>
<!-- Анна Фон Браун&#45;&gt;утонченна, одета в человеческую кожу -->
<g id="edge12" class="edge"><title>Анна Фон Браун&#45;&gt;утонченна, одета в человеческую кожу</title>
<path fill="none" stroke="black" d="M3213,-339.953C3213,-308.902 3213,-245.152 3213,-208.198"/>
<polygon fill="black" stroke="black" points="3216.5,-208.095 3213,-198.095 3209.5,-208.095 3216.5,-208.095"/>
</g>
<!-- Привлекательна -->
<g id="node20" class="node"><title>Привлекательна</title>
<ellipse fill="none" stroke="black" cx="3459" cy="-180" rx="71.0186" ry="18"/>
<text text-anchor="middle" x="3459" y="-175.8" font-family="Times,serif" font-size="14.00">Привлекательна</text>
</g>
<!-- Анна Фон Браун&#45;&gt;Привлекательна -->
<g id="edge13" class="edge"><title>Анна Фон Браун&#45;&gt;Привлекательна</title>
<path fill="none" stroke="black" d="M3236.59,-340.933C3281.04,-308.77 3377.22,-239.174 3427.28,-202.953"/>
<polygon fill="black" stroke="black" points="3429.43,-205.713 3435.48,-197.016 3425.33,-200.042 3429.43,-205.713"/>
</g>
<!-- Орландо&#45;&gt;Зараженная -->
<g id="edge31" class="edge"><title>Орландо&#45;&gt;Зараженная</title>
<path fill="none" stroke="black" d="M2903.49,-250.927C2900.81,-238.946 2895.3,-224.009 2884,-216 2867.84,-204.543 2725.66,-208.462 2706,-206 2680.26,-202.777 2652.03,-197.507 2628.22,-192.552"/>
<polygon fill="black" stroke="black" points="2628.81,-189.101 2618.3,-190.455 2627.36,-195.949 2628.81,-189.101"/>
<text text-anchor="middle" x="2919.92" y="-218.8" font-family="Times,serif" font-size="14.00">Заразил</text>
</g>
<!-- Орландо&#45;&gt;Зараженная -->
<g id="edge32" class="edge"><title>Орландо&#45;&gt;Зараженная</title>
<path fill="none" stroke="black" d="M2876.48,-256.138C2861.1,-249.057 2842.19,-239.743 2826.07,-230 2817.07,-224.562 2816.82,-219.763 2807,-216 2764.88,-199.858 2750.63,-212.557 2706,-206 2680.54,-202.26 2652.56,-196.969 2628.86,-192.136"/>
<polygon fill="black" stroke="black" points="2629.48,-188.692 2618.98,-190.099 2628.07,-195.547 2629.48,-188.692"/>
<text text-anchor="middle" x="2853.96" y="-218.8" font-family="Times,serif" font-size="14.00">Влюблен</text>
</g>
<!-- Ночной клуб -->
<g id="node14" class="node"><title>Ночной клуб</title>
<ellipse fill="none" stroke="black" cx="2377" cy="-180" rx="58.7502" ry="18"/>
<text text-anchor="middle" x="2377" y="-175.8" font-family="Times,serif" font-size="14.00">Ночной клуб</text>
</g>
<!-- Орландо&#45;&gt;Ночной клуб -->
<g id="edge33" class="edge"><title>Орландо&#45;&gt;Ночной клуб</title>
<path fill="none" stroke="black" d="M2864.15,-266.947C2781.69,-262.116 2592.94,-247.159 2440,-206 2432.93,-204.097 2425.6,-201.596 2418.54,-198.895"/>
<polygon fill="black" stroke="black" points="2419.73,-195.6 2409.14,-195.128 2417.12,-202.098 2419.73,-195.6"/>
<text text-anchor="middle" x="2612.78" y="-218.8" font-family="Times,serif" font-size="14.00">Постоянный посетитель</text>
</g>
<!-- Красавец -->
<g id="node21" class="node"><title>Красавец</title>
<ellipse fill="none" stroke="black" cx="2763" cy="-107" rx="45.1237" ry="18"/>
<text text-anchor="middle" x="2763" y="-102.8" font-family="Times,serif" font-size="14.00">Красавец</text>
</g>
<!-- Орландо&#45;&gt;Красавец -->
<g id="edge14" class="edge"><title>Орландо&#45;&gt;Красавец</title>
<path fill="none" stroke="black" d="M2930.26,-254.119C2943.57,-243.954 2955.92,-229.863 2948,-216 2931.88,-187.798 2851.98,-147.482 2802.6,-124.613"/>
<polygon fill="black" stroke="black" points="2804.01,-121.408 2793.46,-120.417 2801.09,-127.769 2804.01,-121.408"/>
</g>
<!-- Молодой ученик Армана -->
<g id="node22" class="node"><title>Молодой ученик Армана</title>
<ellipse fill="none" stroke="black" cx="2929" cy="-107" rx="103.315" ry="18"/>
<text text-anchor="middle" x="2929" y="-102.8" font-family="Times,serif" font-size="14.00">Молодой ученик Армана</text>
</g>
<!-- Орландо&#45;&gt;Молодой ученик Армана -->
<g id="edge15" class="edge"><title>Орландо&#45;&gt;Молодой ученик Армана</title>
<path fill="none" stroke="black" d="M2936.37,-256.504C2947.45,-250.283 2958.78,-241.571 2965,-230 2983.31,-195.944 2979.8,-178.723 2965,-143 2963.45,-139.249 2961.29,-135.685 2958.8,-132.361"/>
<polygon fill="black" stroke="black" points="2961.27,-129.872 2952.07,-124.626 2955.99,-134.467 2961.27,-129.872"/>
</g>
<!-- Редактор NY Times -->
<g id="node23" class="node"><title>Редактор NY Times</title>
<ellipse fill="none" stroke="black" cx="1213" cy="-34" rx="82.7934" ry="18"/>
<text text-anchor="middle" x="1213" y="-29.8" font-family="Times,serif" font-size="14.00">Редактор NY Times</text>
</g>
<!-- Донни Версетти&#45;&gt;Редактор NY Times -->
<g id="edge16" class="edge"><title>Донни Версетти&#45;&gt;Редактор NY Times</title>
<path fill="none" stroke="black" d="M1433.44,-163.252C1388.46,-136.88 1301.1,-85.6569 1250.92,-56.2321"/>
<polygon fill="black" stroke="black" points="1252.39,-53.0413 1242,-51.0024 1248.85,-59.0798 1252.39,-53.0413"/>
</g>
<!-- Продажный -->
<g id="node24" class="node"><title>Продажный</title>
<ellipse fill="none" stroke="black" cx="1368" cy="-34" rx="54.9177" ry="18"/>
<text text-anchor="middle" x="1368" y="-29.8" font-family="Times,serif" font-size="14.00">Продажный</text>
</g>
<!-- Донни Версетти&#45;&gt;Продажный -->
<g id="edge17" class="edge"><title>Донни Версетти&#45;&gt;Продажный</title>
<path fill="none" stroke="black" d="M1450.47,-162.098C1434.12,-136.703 1404.08,-90.0418 1385.12,-60.593"/>
<polygon fill="black" stroke="black" points="1387.98,-58.5623 1379.62,-52.0489 1382.09,-62.3517 1387.98,-58.5623"/>
</g>
<!-- Расчетливый -->
<g id="node25" class="node"><title>Расчетливый</title>
<ellipse fill="none" stroke="black" cx="1500" cy="-34" rx="58.6564" ry="18"/>
<text text-anchor="middle" x="1500" y="-29.8" font-family="Times,serif" font-size="14.00">Расчетливый</text>
</g>
<!-- Донни Версетти&#45;&gt;Расчетливый -->
<g id="edge18" class="edge"><title>Донни Версетти&#45;&gt;Расчетливый</title>
<path fill="none" stroke="black" d="M1466.74,-161.804C1473.26,-136.751 1485.06,-91.4015 1492.71,-62.007"/>
<polygon fill="black" stroke="black" points="1496.19,-62.5257 1495.32,-51.9665 1489.42,-60.7624 1496.19,-62.5257"/>
</g>
<!-- Любит давить на подчиненных -->
<g id="node26" class="node"><title>Любит давить на подчиненных</title>
<ellipse fill="none" stroke="black" cx="1701" cy="-34" rx="124.582" ry="18"/>
<text text-anchor="middle" x="1701" y="-29.8" font-family="Times,serif" font-size="14.00">Любит давить на подчиненных</text>
</g>
<!-- Донни Версетти&#45;&gt;Любит давить на подчиненных -->
<g id="edge19" class="edge"><title>Донни Версетти&#45;&gt;Любит давить на подчиненных</title>
<path fill="none" stroke="black" d="M1489.42,-163.252C1532.24,-137.092 1615.1,-86.4771 1663.44,-56.9444"/>
<polygon fill="black" stroke="black" points="1665.34,-59.8859 1672.05,-51.686 1661.69,-53.9123 1665.34,-59.8859"/>
</g>
<!-- Вилли &#39;Угрюмый&#39; Джонс&#45;&gt;Донни Версетти -->
<g id="edge36" class="edge"><title>Вилли &#39;Угрюмый&#39; Джонс&#45;&gt;Донни Версетти</title>
<path fill="none" stroke="black" d="M1071.36,-255.579C1159.12,-238.6 1309.2,-209.563 1395.55,-192.856"/>
<polygon fill="black" stroke="black" points="1396.35,-196.267 1405.5,-190.931 1395.02,-189.394 1396.35,-196.267"/>
<text text-anchor="middle" x="1318.81" y="-218.8" font-family="Times,serif" font-size="14.00">Платит за пиар</text>
</g>
<!-- Кандидат в мэры Нью&#45;Йорка -->
<g id="node27" class="node"><title>Кандидат в мэры Нью&#45;Йорка</title>
<ellipse fill="none" stroke="black" cx="987" cy="-107" rx="119.098" ry="18"/>
<text text-anchor="middle" x="987" y="-102.8" font-family="Times,serif" font-size="14.00">Кандидат в мэры Нью&#45;Йорка</text>
</g>
<!-- Вилли &#39;Угрюмый&#39; Джонс&#45;&gt;Кандидат в мэры Нью&#45;Йорка -->
<g id="edge20" class="edge"><title>Вилли &#39;Угрюмый&#39; Джонс&#45;&gt;Кандидат в мэры Нью&#45;Йорка</title>
<path fill="none" stroke="black" d="M1000.31,-250.731C997.709,-222.657 992.711,-168.675 989.634,-135.449"/>
<polygon fill="black" stroke="black" points="993.116,-135.085 988.708,-125.45 986.145,-135.73 993.116,-135.085"/>
</g>
<!-- Лестат&#45;&gt;Вилли &#39;Угрюмый&#39; Джонс -->
<g id="edge35" class="edge"><title>Лестат&#45;&gt;Вилли &#39;Угрюмый&#39; Джонс</title>
<path fill="none" stroke="black" d="M626.229,-347.325C633.903,-344.728 642.212,-342.099 650,-340 700.064,-326.509 833.68,-300.575 921.133,-284.063"/>
<polygon fill="black" stroke="black" points="921.853,-287.489 931.032,-282.197 920.556,-280.61 921.853,-287.489"/>
<text text-anchor="middle" x="858.774" y="-310.8" font-family="Times,serif" font-size="14.00">Вынужден подчиняться</text>
</g>
<!-- Лестат&#45;&gt;Ночной клуб -->
<g id="edge34" class="edge"><title>Лестат&#45;&gt;Ночной клуб</title>
<path fill="none" stroke="black" d="M625.505,-346.783C633.332,-344.128 641.897,-341.604 650,-340 773.632,-315.522 807.31,-331.279 933,-322 1009.73,-316.336 2238.18,-223.905 2313,-206 2320.38,-204.235 2328.02,-201.755 2335.34,-199.021"/>
<polygon fill="black" stroke="black" points="2337.05,-202.106 2345.07,-195.178 2334.48,-195.596 2337.05,-202.106"/>
<text text-anchor="middle" x="1886.6" y="-264.8" font-family="Times,serif" font-size="14.00">Владелец</text>
</g>
<!-- Одиночка -->
<g id="node28" class="node"><title>Одиночка</title>
<ellipse fill="none" stroke="black" cx="591" cy="-180" rx="46.6551" ry="18"/>
<text text-anchor="middle" x="591" y="-175.8" font-family="Times,serif" font-size="14.00">Одиночка</text>
</g>
<!-- Лестат&#45;&gt;Одиночка -->
<g id="edge21" class="edge"><title>Лестат&#45;&gt;Одиночка</title>
<path fill="none" stroke="black" d="M596.392,-339.953C595.345,-308.902 593.196,-245.152 591.95,-208.198"/>
<polygon fill="black" stroke="black" points="595.445,-207.971 591.61,-198.095 588.449,-208.207 595.445,-207.971"/>
</g>
<!-- Уважает маскарад -->
<g id="node29" class="node"><title>Уважает маскарад</title>
<ellipse fill="none" stroke="black" cx="95" cy="-180" rx="79.3846" ry="18"/>
<text text-anchor="middle" x="95" y="-175.8" font-family="Times,serif" font-size="14.00">Уважает маскарад</text>
</g>
<!-- Лестат&#45;&gt;Уважает маскарад -->
<g id="edge22" class="edge"><title>Лестат&#45;&gt;Уважает маскарад</title>
<path fill="none" stroke="black" d="M567.472,-347.53C485.134,-318.334 252.173,-235.731 147.303,-198.546"/>
<polygon fill="black" stroke="black" points="148.459,-195.242 137.865,-195.199 146.12,-201.84 148.459,-195.242"/>
</g>
<!-- Хочет предотвратить возвышение Тремер -->
<g id="node30" class="node"><title>Хочет предотвратить возвышение Тремер</title>
<ellipse fill="none" stroke="black" cx="359" cy="-180" rx="167.442" ry="18"/>
<text text-anchor="middle" x="359" y="-175.8" font-family="Times,serif" font-size="14.00">Хочет предотвратить возвышение Тремер</text>
</g>
<!-- Лестат&#45;&gt;Хочет предотвратить возвышение Тремер -->
<g id="edge23" class="edge"><title>Лестат&#45;&gt;Хочет предотвратить возвышение Тремер</title>
<path fill="none" stroke="black" d="M576.708,-342.824C535.371,-311.908 441.111,-241.411 391.271,-204.135"/>
<polygon fill="black" stroke="black" points="393.19,-201.2 383.086,-198.014 388.997,-206.806 393.19,-201.2"/>
</g>
<!-- Аспекты -->
<g id="node31" class="node"><title>Аспекты</title>
<ellipse fill="none" stroke="black" cx="705" cy="-180" rx="43.0065" ry="18"/>
<text text-anchor="middle" x="705" y="-175.8" font-family="Times,serif" font-size="14.00">Аспекты</text>
</g>
<!-- Мэдоу Джонс&#45;&gt;Аспекты -->
<g id="edge24" class="edge"><title>Мэдоу Джонс&#45;&gt;Аспекты</title>
<path fill="none" stroke="black" d="M712.018,-340.15C704.607,-328 695.788,-311.234 691.89,-295 684.859,-265.725 690.549,-231.326 696.478,-207.828"/>
<polygon fill="black" stroke="black" points="699.859,-208.731 699.085,-198.164 693.101,-206.907 699.859,-208.731"/>
<text text-anchor="start" x="719.012" y="-278.8" font-family="Times,serif" font-size="14.00">Адвокат и PR&#45;щик</text>
<text text-anchor="start" x="740.111" y="-264.8" font-family="Times,serif" font-size="14.00">дочь Вилли</text>
<text text-anchor="start" x="692" y="-250.8" font-family="Times,serif" font-size="14.00">Готова убить за общее дело</text>
</g>
</g>
</svg>
